<?xml version="1.0" encoding="UTF-8" standalone="no"?>
<svg
   xmlns:osb="http://www.openswatchbook.org/uri/2009/osb"
   xmlns:dc="http://purl.org/dc/elements/1.1/"
   xmlns:cc="http://creativecommons.org/ns#"
   xmlns:rdf="http://www.w3.org/1999/02/22-rdf-syntax-ns#"
   xmlns:svg="http://www.w3.org/2000/svg"
   xmlns="http://www.w3.org/2000/svg"
   xmlns:sodipodi="http://sodipodi.sourceforge.net/DTD/sodipodi-0.dtd"
   xmlns:inkscape="http://www.inkscape.org/namespaces/inkscape"
   viewBox="0 0 16 16"
   version="1.1"
   id="svg3701"
   sodipodi:docname="eventnews.svg"
   inkscape:version="0.92.0 r15299">
  <metadata
     id="metadata3707">
    <rdf:RDF>
      <cc:Work
         rdf:about="">
        <dc:format>image/svg+xml</dc:format>
        <dc:type
           rdf:resource="http://purl.org/dc/dcmitype/StillImage" />
        <dc:title></dc:title>
      </cc:Work>
    </rdf:RDF>
  </metadata>
  <defs
     id="defs3705">
    <linearGradient
       id="linearGradient5102"
       osb:paint="solid">
      <stop
         style="stop-color:#7e86dc;stop-opacity:1;"
         offset="0"
         id="stop5100" />
    </linearGradient>
  </defs>
  <sodipodi:namedview
     pagecolor="#ffffff"
     bordercolor="#666666"
     borderopacity="1"
     objecttolerance="10"
     gridtolerance="10"
     guidetolerance="10"
     inkscape:pageopacity="0"
     inkscape:pageshadow="2"
     inkscape:window-width="1796"
     inkscape:window-height="898"
     id="namedview3703"
     showgrid="false"
     inkscape:zoom="22.627417"
     inkscape:cx="-4.7494874"
     inkscape:cy="9.9232493"
     inkscape:window-x="1723"
     inkscape:window-y="226"
     inkscape:window-maximized="0"
     inkscape:current-layer="svg3701" />
  <path
     fill="#888"
     d="M0 2v12h12.69V3.81H5.08L3.95 2H0z"
     id="path3697"
     style="fill:#484c7d;fill-opacity:1" />
  <rect
     style="opacity:1;fill:#ffffff;fill-opacity:1"
     id="rect5098"
     width="7.88866"
     height="6.1429901"
     x="4.839262"
     y="3.0069129" />
  <path
     id="path3709"
     class="icon-color"
     d="M 12.843584,1.4466103 H 11.823002 V 0.4260292 A 0.3401937,0.3401937 0 0 0 11.482808,0.0858355 H 10.122034 A 0.3401937,0.3401937 0 0 0 9.7818405,0.4260292 V 1.4466103 H 7.740678 V 0.4260292 A 0.3401937,0.3401937 0 0 0 7.4004843,0.0858355 H 6.0397095 A 0.3401937,0.3401937 0 0 0 5.6995158,0.4260292 V 1.4466103 H 4.6789347 A 0.3401937,0.3401937 0 0 0 4.3387414,1.786804 v 7.4842613 a 0.3401937,0.3401937 0 0 0 0.3401933,0.340194 h 8.1646493 a 0.3401937,0.3401937 0 0 0 0.340194,-0.340194 V 1.786804 A 0.3401937,0.3401937 0 0 0 12.843584,1.4466103 Z M 10.462228,0.7662229 h 0.680387 v 1.3607748 h -0.680387 z m -4.0823248,0 H 7.0602906 V 2.1269977 H 6.3799032 Z M 6.55,8.9308723 H 5.0191284 V 7.4 H 6.55 Z m 0,-1.8710663 H 5.0191284 V 5.3588377 H 6.55 Z m 0,-2.041162 H 5.0191284 V 3.4877724 H 6.55 Z M 8.5911625,8.9308723 H 6.8901937 V 7.4 h 1.7009688 z m 0,-1.8710663 H 6.8901937 V 5.3588377 h 1.7009688 z m 0,-2.041162 H 6.8901937 V 3.4877724 H 8.5911625 Z M 10.632325,8.9308723 H 8.9313562 V 7.4 h 1.7009688 z m 0,-1.8710663 H 8.9313562 V 5.3588377 h 1.7009688 z m 0,-2.041162 H 8.9313562 V 3.4877724 H 10.632325 Z M 12.50339,8.9308723 H 10.972518 V 7.4 h 1.530872 z m 0,-1.8710663 H 10.972518 V 5.3588377 h 1.530872 z m 0,-2.041162 H 10.972518 V 3.4877724 h 1.530872 z"
     inkscape:connector-curvature="0"
     style="stroke-width:0.68038738" />
  <path
     fill="#AAA"
     d="M8.26 6.08L6.55 7.4H2.53L0 14h12.96L16 6.08H8.26z"
     id="path3699"
     style="fill:#7e86dc;fill-opacity:1" />
</svg>
